<svg id="svg" version="1.1" xmlns="http://www.w3.org/2000/svg" xmlns:xlink="http://www.w3.org/1999/xlink" width="400" height="400" viewBox="0, 0, 400,400"><g id="svgg"><path id="path0" d="M198.243 45.250 C 196.722 51.552,195.490 53.582,192.580 54.582 L 191.084 55.097 193.112 56.648 C 197.761 60.207,196.867 62.259,188.031 68.309 C 183.478 71.427,183.490 71.981,188.113 71.995 C 195.058 72.014,195.305 76.161,188.519 78.800 C 184.699 80.286,182.961 81.404,179.900 84.345 C 177.167 86.970,177.320 87.262,181.357 87.119 C 185.190 86.983,186.195 87.498,186.631 89.824 C 187.349 93.651,185.333 95.956,178.743 98.841 C 174.016 100.911,169.682 103.961,170.223 104.837 C 170.678 105.574,177.937 105.242,180.869 104.352 C 184.473 103.257,186.986 103.471,188.287 104.983 C 191.029 108.171,187.985 112.177,179.800 116.154 C 164.923 123.382,149.965 134.554,151.607 137.211 C 151.901 137.687,152.285 137.652,154.077 136.987 C 155.818 136.342,157.245 136.197,162.000 136.184 C 169.588 136.163,172.806 135.421,175.766 133.010 C 179.546 129.932,180.625 129.781,181.761 132.175 C 184.613 138.185,178.795 146.066,165.718 153.908 C 153.638 161.153,150.864 165.464,149.760 178.705 C 149.437 182.571,149.709 182.778,151.782 180.249 C 154.988 176.335,158.479 174.863,165.696 174.381 C 171.082 174.022,172.609 173.571,176.458 171.203 C 181.822 167.902,183.998 171.053,180.687 177.328 C 178.945 180.629,176.704 182.395,170.251 185.550 C 164.850 188.192,160.508 191.442,161.310 192.244 C 163.097 194.031,173.599 192.470,177.778 189.797 C 185.457 184.884,187.347 194.089,180.060 200.905 C 177.632 203.176,170.328 208.014,165.400 210.616 C 159.697 213.626,156.069 216.785,154.232 220.337 C 153.360 222.024,153.549 222.199,155.406 221.423 C 157.352 220.610,162.131 220.616,166.000 221.437 C 168.061 221.873,169.901 221.994,171.878 221.822 C 175.525 221.504,175.796 221.862,175.501 226.596 C 175.160 232.053,173.913 233.494,166.994 236.419 C 156.501 240.856,152.645 243.449,150.471 247.528 C 148.830 250.606,148.780 251.748,150.300 251.444 C 150.905 251.323,152.902 251.027,154.739 250.787 C 158.223 250.332,162.816 248.827,166.160 247.045 C 169.253 245.396,172.484 245.855,174.333 248.205 C 177.802 252.615,169.349 260.970,160.184 262.190 C 152.648 263.193,150.747 265.037,154.402 267.800 C 160.211 272.192,159.660 276.202,152.752 279.800 C 144.324 284.190,142.428 286.536,139.240 296.524 C 136.709 304.454,137.740 308.165,141.419 304.368 C 147.436 298.156,159.200 292.821,168.600 292.040 C 175.983 291.426,178.054 290.615,182.384 286.642 C 186.192 283.148,188.253 282.220,189.760 283.322 C 190.430 283.812,190.474 285.246,190.477 307.022 C 190.482 340.327,190.561 339.972,181.232 348.769 C 176.481 353.248,175.034 354.904,172.492 358.769 C 168.386 365.012,165.696 368.336,163.221 370.223 L 161.153 371.800 180.376 371.904 C 190.949 371.961,208.260 371.961,218.845 371.904 L 238.089 371.800 235.642 370.424 C 234.296 369.667,231.988 367.802,230.512 366.281 C 227.048 362.708,225.345 361.363,221.250 358.963 C 215.195 355.415,211.090 349.920,209.316 342.989 C 208.676 340.487,208.602 338.044,208.601 319.265 L 208.600 298.330 209.544 297.565 C 210.981 296.401,212.435 296.624,215.046 298.409 C 218.760 300.948,220.648 301.337,227.631 300.998 C 236.954 300.547,239.769 301.548,252.468 309.829 C 262.389 316.298,263.574 315.158,259.517 303.050 C 256.546 294.181,254.200 291.147,247.800 287.895 C 242.764 285.337,241.545 281.203,244.748 277.545 C 248.512 273.246,247.879 271.496,242.108 270.255 C 232.676 268.225,230.423 267.210,226.828 263.366 C 220.749 256.868,225.405 250.482,233.233 254.581 C 237.325 256.724,241.896 258.035,246.146 258.287 L 250.092 258.521 249.794 257.561 C 248.012 251.815,243.234 248.212,230.800 243.237 C 226.103 241.357,224.190 239.456,223.792 236.275 C 222.991 229.861,225.218 227.769,229.139 231.255 C 232.028 233.825,233.865 234.471,238.971 234.713 C 242.110 234.862,243.743 235.122,244.597 235.610 C 245.259 235.989,246.373 236.633,247.074 237.042 C 248.743 238.015,248.882 237.786,248.198 235.181 C 246.256 227.785,241.639 222.203,234.200 218.256 C 221.845 211.703,214.800 205.543,214.800 201.296 C 214.800 199.017,216.651 198.603,220.406 200.040 C 226.593 202.410,227.411 202.554,231.556 202.007 C 235.267 201.518,238.018 201.581,239.900 202.198 C 241.446 202.705,240.991 201.078,239.100 199.337 C 236.415 196.866,234.197 195.494,228.268 192.638 C 220.369 188.834,216.584 184.673,216.878 180.118 C 217.146 175.963,220.399 175.436,227.701 178.366 C 230.395 179.448,234.400 180.899,236.600 181.592 C 238.800 182.285,241.734 183.398,243.121 184.067 C 248.653 186.733,249.615 186.217,248.601 181.128 C 246.522 170.690,244.421 167.905,233.867 161.600 C 222.053 154.542,216.000 147.978,216.000 142.223 C 216.000 138.684,216.927 138.332,221.476 140.144 C 226.285 142.059,229.191 142.666,237.064 143.398 C 240.769 143.743,244.430 144.264,245.200 144.557 C 248.116 145.666,248.364 144.323,245.868 140.944 C 240.759 134.029,229.553 125.925,221.000 122.960 C 208.031 118.465,211.160 112.970,226.007 114.167 C 234.499 114.851,232.542 111.668,221.446 106.747 C 213.792 103.352,212.404 102.036,212.401 98.170 C 212.399 95.079,213.260 94.465,217.808 94.317 L 221.400 94.200 218.482 91.297 C 216.732 89.555,214.606 87.910,213.168 87.184 C 209.420 85.292,209.162 83.076,212.478 81.262 C 213.143 80.898,214.073 80.300,214.544 79.934 L 215.400 79.268 214.400 78.199 C 213.850 77.612,212.295 76.341,210.944 75.376 C 208.099 73.345,205.392 70.418,205.032 68.987 C 204.790 68.020,205.702 65.602,206.310 65.598 C 206.752 65.595,209.600 62.891,209.600 62.475 C 209.600 62.273,208.789 61.998,207.797 61.862 C 202.853 61.184,201.675 57.914,205.089 54.341 L 206.483 52.882 205.232 52.607 C 202.519 52.011,200.990 49.811,200.019 45.107 C 199.368 41.948,199.034 41.975,198.243 45.250 " stroke="none" fill="#097262" fill-rule="evenodd"></path><path id="path1" d="M130.015 15.893 C 129.694 16.020,121.864 23.337,112.615 32.153 C 103.367 40.969,95.600 48.366,95.355 48.591 C 94.266 49.591,84.621 58.893,80.900 62.531 L 76.800 66.541 76.800 134.827 L 76.800 203.114 99.838 225.857 L 122.875 248.600 133.325 248.800 L 143.774 249.000 143.659 250.866 C 143.402 255.028,145.571 256.554,151.437 256.338 C 153.502 256.262,155.194 256.335,155.196 256.500 C 155.198 256.665,155.200 256.956,155.200 257.146 C 155.200 257.336,154.345 257.816,153.300 258.212 C 150.448 259.294,148.640 260.634,147.645 262.405 L 146.751 263.996 111.876 264.098 L 77.000 264.200 76.898 299.026 L 76.796 333.852 101.237 357.226 C 114.680 370.082,126.587 381.455,127.696 382.500 L 129.713 384.400 199.687 384.400 L 269.661 384.400 279.331 375.153 C 284.649 370.067,296.599 358.682,305.887 349.853 L 322.775 333.800 322.787 268.543 L 322.800 203.285 299.756 180.443 L 276.711 157.600 257.180 157.600 L 237.649 157.600 233.773 155.300 C 227.798 151.754,222.163 146.152,225.385 146.961 C 228.598 147.767,232.901 148.379,237.056 148.620 C 240.120 148.798,242.508 149.162,243.800 149.648 C 248.446 151.394,252.182 149.302,252.752 144.635 L 253.000 142.600 287.800 142.593 L 322.600 142.586 322.702 104.561 L 322.804 66.536 320.702 64.570 C 319.010 62.988,284.008 29.656,272.143 18.328 L 269.285 15.600 199.943 15.632 C 161.804 15.649,130.337 15.767,130.015 15.893 M271.866 26.500 C 274.467 28.975,279.117 33.437,282.198 36.416 C 285.279 39.394,289.320 43.264,291.178 45.016 C 293.036 46.767,296.906 50.462,299.778 53.227 C 302.650 55.992,307.520 60.649,310.600 63.575 C 313.680 66.500,316.322 69.188,316.472 69.547 C 316.809 70.357,316.892 134.894,316.557 135.767 C 316.338 136.337,312.900 136.400,281.757 136.400 C 262.751 136.400,247.200 136.498,247.200 136.618 C 247.200 136.737,247.996 137.997,248.968 139.418 C 252.932 145.207,250.107 150.243,244.265 147.801 C 243.476 147.472,240.439 147.026,237.516 146.810 C 230.014 146.255,226.883 145.680,221.870 143.937 C 218.908 142.907,218.819 143.042,220.616 145.852 C 223.495 150.352,227.963 154.172,236.114 159.100 L 243.556 163.600 258.841 163.600 L 274.126 163.600 295.469 184.900 L 316.812 206.200 316.706 268.715 C 316.621 318.742,316.498 331.292,316.092 331.543 C 315.812 331.716,313.650 333.734,311.286 336.029 C 308.922 338.323,305.100 342.000,302.791 344.200 C 300.483 346.400,296.070 350.630,292.984 353.600 C 282.516 363.675,270.608 375.041,268.755 376.724 L 266.911 378.400 199.601 378.400 L 132.292 378.400 128.453 374.700 C 126.341 372.665,124.516 370.910,124.398 370.800 C 124.279 370.690,122.026 368.526,119.391 365.992 C 116.756 363.458,110.552 357.518,105.605 352.792 C 100.658 348.066,94.538 342.208,92.005 339.774 C 89.472 337.340,86.364 334.388,85.098 333.214 L 82.795 331.079 82.898 300.640 L 83.000 270.200 117.300 270.200 C 136.165 270.200,151.600 270.093,151.600 269.962 C 151.600 269.831,151.222 269.382,150.759 268.963 C 146.126 264.770,149.192 260.945,158.704 259.051 C 166.897 257.419,174.179 251.972,171.074 249.797 C 169.927 248.993,169.906 248.997,166.509 250.631 C 158.774 254.352,148.642 255.842,146.390 253.590 C 144.989 252.189,145.916 247.889,148.357 244.460 C 149.756 242.496,149.582 242.465,137.127 242.455 L 125.462 242.446 121.856 238.923 C 119.873 236.985,110.271 227.480,100.519 217.800 L 82.788 200.200 82.794 134.761 L 82.800 69.323 87.100 65.130 C 89.465 62.824,95.450 57.091,100.400 52.390 C 110.360 42.931,114.912 38.588,121.191 32.556 C 123.506 30.331,126.930 27.047,128.800 25.258 L 132.200 22.004 199.668 22.002 L 267.135 22.000 271.866 26.500 M129.356 33.660 C 126.300 36.553,121.820 40.841,119.400 43.189 C 116.980 45.537,113.110 49.257,110.800 51.454 C 108.490 53.652,102.682 59.200,97.894 63.783 L 89.188 72.116 89.294 134.865 L 89.400 197.615 108.617 216.807 L 127.833 236.000 143.742 236.000 L 159.651 236.000 161.926 234.957 C 163.177 234.384,165.100 233.560,166.200 233.126 C 171.221 231.147,172.000 230.323,172.000 226.993 C 172.000 225.339,171.918 225.172,171.214 225.396 C 170.781 225.533,168.360 225.275,165.832 224.823 C 160.104 223.797,158.554 223.793,156.000 224.800 C 153.331 225.852,151.944 225.818,150.870 224.674 C 147.674 221.272,153.940 212.864,163.356 207.921 C 174.339 202.155,181.145 196.346,181.191 192.700 C 181.201 191.921,180.203 191.747,179.768 192.452 C 179.341 193.143,174.075 195.411,171.563 195.986 C 169.422 196.475,167.391 196.432,161.400 195.768 C 153.638 194.908,157.323 187.935,168.278 182.752 C 174.068 180.014,175.555 179.008,177.227 176.699 C 179.026 174.216,178.746 173.798,176.237 175.214 C 173.277 176.884,172.242 177.137,165.800 177.759 C 158.953 178.421,157.245 179.116,154.406 182.393 C 147.199 190.712,143.707 182.028,148.441 167.561 C 150.743 160.528,153.739 157.081,161.600 152.424 C 171.685 146.450,175.945 142.851,178.201 138.397 C 179.601 135.635,179.456 133.645,177.985 135.419 C 175.766 138.092,171.260 139.337,163.448 139.435 C 158.424 139.498,157.077 139.653,154.804 140.427 C 149.732 142.154,146.595 138.930,148.745 134.199 C 150.758 129.768,163.147 120.850,177.184 113.729 C 186.258 109.126,189.128 105.104,181.571 107.581 C 177.519 108.910,168.994 108.698,167.432 107.230 C 164.417 104.397,168.533 99.562,177.006 95.983 C 184.324 92.892,185.365 90.705,179.663 90.400 C 175.199 90.161,174.159 89.410,174.524 86.691 C 174.902 83.869,180.290 78.681,185.065 76.540 C 187.568 75.418,187.562 75.392,184.738 75.013 C 178.942 74.234,179.542 69.950,186.058 65.583 C 192.564 61.224,192.794 60.833,190.156 58.628 C 186.181 55.305,186.511 52.216,190.930 51.387 C 193.016 50.995,193.497 50.093,195.237 43.309 C 196.880 36.898,197.155 36.437,199.530 36.119 C 201.519 35.852,201.520 35.854,202.859 42.356 C 204.008 47.939,204.586 48.999,206.659 49.333 C 210.629 49.971,211.241 52.707,208.153 56.009 L 206.306 57.984 207.379 58.392 C 207.969 58.616,208.899 58.800,209.446 58.800 C 213.864 58.800,214.478 62.679,210.645 66.383 C 208.123 68.821,208.398 69.405,214.000 73.495 C 219.149 77.256,219.929 80.968,215.996 83.002 C 214.432 83.811,214.483 83.983,216.715 85.384 C 225.967 91.194,227.353 97.768,219.338 97.825 C 216.522 97.845,215.778 97.973,215.685 98.452 C 215.493 99.449,217.206 101.231,219.160 102.069 C 231.335 107.287,234.400 109.562,234.400 113.378 C 234.400 116.701,230.781 118.416,225.379 117.654 C 216.415 116.390,215.442 117.466,223.111 120.166 C 227.421 121.683,232.011 124.236,237.297 128.056 L 239.994 130.004 274.897 129.902 L 309.800 129.800 309.903 100.933 L 310.005 72.066 305.503 67.712 C 301.392 63.736,294.482 57.101,290.808 53.600 C 287.873 50.803,271.312 34.922,267.974 31.703 L 264.548 28.400 199.730 28.400 L 134.911 28.400 129.356 33.660 M249.081 170.253 C 248.942 170.392,248.993 170.813,249.194 171.189 C 250.500 173.629,252.400 181.622,252.400 184.675 C 252.400 188.914,247.696 190.147,242.200 187.349 C 240.880 186.677,238.450 185.722,236.800 185.228 C 235.150 184.733,231.044 183.256,227.675 181.945 C 219.819 178.888,218.887 179.046,221.180 183.045 C 222.812 185.890,224.257 186.984,230.000 189.718 C 242.057 195.460,247.137 201.226,243.118 204.607 C 241.957 205.585,241.647 205.659,239.818 205.394 C 237.793 205.101,236.852 205.090,228.900 205.272 C 224.999 205.361,224.362 205.269,222.033 204.285 C 220.621 203.689,219.372 203.294,219.259 203.408 C 218.439 204.227,227.699 211.010,234.600 214.645 C 243.835 219.509,247.818 223.911,250.958 232.724 C 253.727 240.495,250.547 243.622,244.269 239.302 C 242.916 238.371,242.195 238.215,238.046 237.956 C 233.159 237.650,230.110 236.680,228.072 234.781 C 227.008 233.790,226.608 234.405,227.183 236.149 C 227.899 238.317,228.659 238.836,234.600 241.209 C 245.014 245.370,249.980 249.197,252.329 254.872 C 255.103 261.576,252.924 263.104,243.051 261.377 C 239.304 260.721,234.022 258.964,231.726 257.609 C 227.672 255.218,225.920 257.690,229.228 261.133 C 232.290 264.320,234.837 265.481,241.168 266.573 C 251.006 268.271,252.994 272.784,247.127 280.099 C 246.409 280.994,246.316 281.400,246.628 282.287 C 247.011 283.378,247.544 283.798,251.841 286.400 C 257.067 289.565,259.594 292.970,262.135 300.268 C 268.478 318.493,264.630 321.878,249.156 311.686 C 238.766 304.842,236.956 304.226,227.600 304.340 C 219.212 304.443,217.664 304.153,214.143 301.815 C 211.315 299.937,211.506 298.464,211.699 320.676 C 211.929 347.054,213.046 350.301,224.127 356.796 C 226.480 358.174,229.024 360.182,231.768 362.825 C 239.071 369.860,243.638 371.564,256.059 371.889 L 264.317 372.105 278.059 358.980 C 285.616 351.761,295.895 341.908,300.900 337.084 L 310.000 328.313 310.000 268.451 L 310.000 208.589 290.690 189.294 L 271.381 170.000 260.357 170.000 C 254.294 170.000,249.220 170.114,249.081 170.253 M89.443 277.433 C 89.309 277.781,89.200 289.317,89.200 303.069 L 89.200 328.073 91.100 329.967 C 92.145 331.009,99.030 337.616,106.400 344.649 C 113.770 351.682,123.130 360.622,127.200 364.514 L 134.600 371.592 143.638 371.596 C 157.511 371.602,161.297 369.734,167.801 359.670 C 171.888 353.347,173.702 351.162,178.971 346.220 C 185.514 340.081,186.041 339.029,186.802 330.600 C 187.230 325.856,187.363 287.200,186.951 287.200 C 186.814 287.200,185.547 288.281,184.135 289.601 C 179.771 293.683,176.400 294.879,167.266 295.586 C 159.850 296.160,148.930 301.428,143.600 307.004 C 137.367 313.524,132.333 307.249,135.545 296.963 C 138.974 285.979,141.260 282.546,147.700 278.715 C 149.185 277.832,150.400 277.039,150.400 276.954 C 150.400 276.370,89.668 276.847,89.443 277.433 " stroke="none" fill="#8c1515" fill-rule="evenodd"></path><path id="path2" d="M0.000 200.000 L 0.000 400.000 200.000 400.000 L 400.000 400.000 400.000 200.000 L 400.000 0.000 200.000 0.000 L 0.000 0.000 0.000 200.000 M270.200 15.829 C 270.640 16.161,272.800 18.194,275.000 20.347 C 277.200 22.501,288.945 33.750,301.100 45.346 L 323.200 66.429 323.200 104.614 C 323.200 134.871,323.096 142.810,322.700 142.848 C 322.425 142.874,306.720 142.919,287.800 142.948 L 253.400 143.000 253.182 144.894 C 252.633 149.668,248.381 151.911,243.400 150.054 C 242.109 149.572,239.770 149.222,236.800 149.064 C 234.270 148.930,230.789 148.546,229.065 148.210 C 227.340 147.875,225.727 147.600,225.480 147.600 C 224.461 147.600,229.278 151.825,233.032 154.224 L 237.064 156.800 256.747 156.800 L 276.431 156.800 277.996 158.300 C 278.857 159.125,289.380 169.511,301.381 181.380 L 323.200 202.960 323.200 268.408 L 323.200 333.855 319.700 337.232 C 316.286 340.526,299.912 356.197,299.039 357.007 C 297.351 358.570,278.969 376.165,275.456 379.579 C 273.067 381.900,270.875 384.025,270.585 384.300 C 270.167 384.696,255.433 384.800,199.677 384.800 L 129.296 384.800 121.748 377.478 C 117.597 373.450,111.461 367.555,108.113 364.378 C 104.765 361.200,96.270 353.110,89.236 346.400 L 76.447 334.200 76.523 299.000 L 76.600 263.800 111.588 263.600 L 146.576 263.400 147.038 262.474 C 147.876 260.794,149.645 259.290,152.139 258.137 L 154.600 257.000 150.600 256.800 C 144.882 256.514,143.200 255.274,143.200 251.346 L 143.200 249.200 133.100 249.194 C 127.545 249.191,122.796 249.056,122.547 248.894 C 122.297 248.732,111.813 238.395,99.249 225.923 L 76.405 203.246 76.400 135.323 C 76.397 97.965,76.396 67.100,76.398 66.733 C 76.399 66.367,83.645 59.182,92.500 50.767 C 101.355 42.352,110.853 33.292,113.606 30.633 C 121.313 23.192,126.430 18.348,128.324 16.700 L 130.049 15.200 199.724 15.213 C 261.200 15.224,269.494 15.296,270.200 15.829 M122.177 32.269 C 116.470 37.697,108.470 45.299,104.400 49.163 C 97.610 55.609,93.122 59.911,85.900 66.894 L 83.200 69.505 83.200 134.658 L 83.200 199.810 104.309 220.905 L 125.418 242.000 137.709 242.000 C 146.171 242.000,150.000 242.133,150.000 242.428 C 150.000 242.663,149.477 243.616,148.838 244.545 C 146.831 247.463,145.670 251.378,146.420 252.704 C 147.796 255.138,158.752 253.820,165.809 250.373 C 169.448 248.595,170.314 248.476,171.656 249.570 L 172.600 250.339 171.829 251.784 C 169.780 255.624,165.596 258.159,159.204 259.431 C 151.430 260.978,149.600 262.122,149.600 265.435 C 149.600 267.055,149.788 267.483,151.000 268.626 C 151.770 269.352,152.400 270.138,152.400 270.373 C 152.400 270.672,142.052 270.800,117.800 270.800 L 83.200 270.800 83.200 300.756 L 83.200 330.713 100.700 347.447 C 110.325 356.650,120.090 365.999,122.400 368.223 C 124.710 370.446,127.950 373.551,129.600 375.124 L 132.600 377.982 199.700 377.991 L 266.800 378.000 271.082 373.900 C 290.129 355.662,301.926 344.402,313.500 333.411 L 316.400 330.657 316.400 268.518 L 316.400 206.379 295.100 185.204 L 273.800 164.028 258.354 164.014 C 243.957 164.001,242.843 163.950,241.954 163.261 C 241.429 162.855,238.660 161.124,235.800 159.415 C 228.523 155.066,225.316 152.561,222.419 148.960 C 218.237 143.761,217.713 141.578,221.022 143.144 C 224.048 144.577,230.532 145.803,238.039 146.363 C 240.870 146.574,243.740 147.015,244.588 147.369 C 247.756 148.693,250.400 147.202,250.400 144.093 C 250.400 142.587,248.040 138.166,246.840 137.425 C 244.609 136.046,245.494 136.007,281.300 135.902 L 316.200 135.800 316.302 102.753 L 316.405 69.707 304.504 58.353 C 297.959 52.109,286.806 41.465,279.721 34.700 L 266.838 22.400 199.696 22.400 L 132.553 22.400 122.177 32.269 M279.440 42.064 C 287.558 49.799,297.846 59.631,302.303 63.912 L 310.405 71.696 310.303 100.948 L 310.200 130.200 274.828 130.302 C 240.581 130.401,239.430 130.380,238.628 129.646 C 235.727 126.988,226.728 121.858,222.328 120.354 C 215.201 117.918,215.562 115.550,222.877 116.758 C 228.747 117.727,232.578 117.082,233.545 114.962 C 235.300 111.108,232.056 108.079,221.400 103.623 C 214.057 100.552,212.773 97.403,218.862 97.397 C 224.212 97.391,225.544 95.282,222.700 91.320 C 221.561 89.734,215.942 85.059,214.516 84.512 C 213.641 84.177,213.935 83.688,215.560 82.775 C 219.729 80.431,218.734 77.541,212.030 72.523 C 210.617 71.465,209.089 70.095,208.636 69.478 L 207.811 68.356 210.076 66.264 C 213.957 62.681,213.423 59.200,208.993 59.200 C 206.426 59.200,205.330 57.797,206.905 56.529 C 210.400 53.715,210.388 50.000,206.885 50.000 C 204.411 50.000,203.689 48.727,202.169 41.692 C 201.017 36.358,200.937 36.219,199.226 36.594 C 197.628 36.945,197.059 37.887,196.201 41.600 C 194.169 50.387,193.296 52.000,190.573 52.000 C 187.111 52.000,187.027 54.990,190.401 58.093 C 193.485 60.930,193.350 61.200,186.554 65.772 C 178.874 70.939,179.592 74.652,188.300 74.792 C 189.487 74.811,188.615 75.559,186.218 76.577 C 181.421 78.616,175.964 83.291,175.129 86.078 C 174.295 88.864,175.408 89.753,180.037 90.000 C 184.258 90.225,184.567 90.490,183.201 92.714 C 182.635 93.637,181.591 94.394,179.697 95.256 C 172.181 98.676,171.354 99.166,169.086 101.544 C 166.055 104.722,166.061 106.735,169.105 107.580 C 171.756 108.316,178.531 108.102,181.096 107.200 C 183.808 106.247,185.323 106.185,185.998 106.998 C 187.168 108.407,184.129 110.944,177.400 114.177 C 166.420 119.452,152.975 128.705,150.100 132.964 C 146.841 137.793,149.589 141.965,154.703 139.951 C 156.677 139.173,157.815 139.037,162.800 138.983 C 170.543 138.899,175.939 137.484,178.004 134.995 C 179.683 132.972,180.176 135.976,178.614 138.708 C 175.890 143.472,172.100 146.623,160.786 153.531 C 152.156 158.800,149.137 163.468,147.407 174.221 C 145.629 185.270,147.918 188.198,153.752 182.342 C 157.686 178.393,159.380 177.675,165.861 177.204 C 171.700 176.779,174.221 176.134,176.800 174.406 C 178.466 173.290,178.609 173.257,178.724 173.973 C 179.085 176.217,175.699 179.690,170.890 182.008 C 164.976 184.859,164.055 185.357,162.197 186.704 C 156.565 190.789,156.567 194.740,162.200 195.447 C 169.088 196.312,173.792 195.504,178.740 192.604 C 181.680 190.880,181.600 190.878,181.600 192.665 C 181.600 196.496,175.121 202.223,164.338 207.923 C 155.885 212.392,150.791 217.832,150.727 222.458 C 150.689 225.181,152.013 225.697,155.704 224.400 C 158.164 223.535,161.035 223.416,164.200 224.046 C 165.300 224.265,167.640 224.569,169.400 224.722 L 172.600 225.000 172.474 227.200 C 172.265 230.830,171.498 231.487,163.600 234.803 L 159.800 236.398 143.800 236.392 L 127.800 236.387 108.284 217.093 L 88.767 197.800 88.784 134.762 L 88.800 71.725 95.695 65.162 C 99.487 61.553,104.550 56.710,106.946 54.400 C 109.342 52.090,111.504 50.018,111.751 49.796 C 111.998 49.575,116.070 45.711,120.800 41.211 C 125.530 36.711,130.597 31.898,132.061 30.515 L 134.722 28.000 199.701 28.000 L 264.680 28.000 279.440 42.064 M199.741 41.900 C 199.848 42.285,200.235 43.860,200.601 45.400 C 201.752 50.242,203.559 52.400,206.460 52.400 C 207.602 52.400,207.357 52.934,205.400 54.715 C 202.189 57.637,203.399 60.767,207.983 61.398 C 210.843 61.791,210.847 62.226,208.013 64.881 C 204.239 68.417,204.804 70.180,211.255 74.998 C 216.358 78.808,216.632 79.661,213.298 81.350 C 209.955 83.044,209.820 84.882,212.921 86.459 C 216.717 88.390,221.776 93.033,221.508 94.339 C 221.394 94.895,220.899 94.982,218.386 94.886 C 214.604 94.743,213.848 94.938,213.269 96.209 C 211.675 99.708,213.575 102.796,218.639 104.937 C 229.068 109.345,233.236 112.544,230.987 114.411 C 230.281 114.997,228.244 115.044,222.586 114.605 C 211.216 113.722,210.494 118.710,221.431 122.585 C 230.002 125.621,240.993 133.557,246.177 140.454 C 248.899 144.075,248.459 146.351,245.282 145.079 C 244.442 144.743,242.235 144.353,240.378 144.211 C 230.131 143.431,225.774 142.631,221.687 140.778 C 217.678 138.960,216.201 139.368,216.283 142.268 C 216.427 147.328,223.391 154.856,233.409 160.779 C 244.522 167.349,246.855 170.300,249.022 180.526 C 250.319 186.643,248.997 187.537,243.087 184.543 C 241.960 183.971,239.858 183.177,238.418 182.778 C 236.978 182.378,232.776 180.870,229.080 179.426 C 221.590 176.499,220.255 176.300,218.431 177.836 C 214.709 180.967,219.353 187.833,227.944 191.903 C 237.864 196.602,245.046 202.910,239.990 202.483 C 238.094 202.323,233.800 202.317,229.000 202.468 C 225.183 202.588,224.872 202.533,222.200 201.276 C 217.132 198.891,214.807 199.182,215.361 202.132 C 216.088 206.007,223.297 212.023,233.600 217.353 C 241.643 221.514,245.594 225.937,248.255 233.762 C 249.857 238.470,249.455 239.315,246.556 237.341 C 243.988 235.592,242.619 235.200,239.085 235.200 C 234.606 235.200,232.323 234.454,229.265 231.989 C 225.347 228.832,223.776 229.733,224.157 234.918 C 224.499 239.569,225.475 240.595,232.077 243.239 C 243.885 247.969,250.400 253.245,250.400 258.076 C 250.400 260.380,240.967 258.825,233.660 255.317 C 228.826 252.996,224.742 253.975,224.478 257.518 C 224.090 262.727,231.590 268.119,241.000 269.395 C 247.882 270.328,249.235 273.315,244.945 278.101 C 241.926 281.470,243.527 285.066,249.516 288.366 C 255.011 291.394,257.190 294.415,259.926 302.800 C 264.425 316.583,263.258 317.399,250.688 309.257 C 239.681 302.128,236.001 300.900,227.699 301.586 C 222.064 302.052,219.307 301.642,216.615 299.940 C 211.252 296.548,209.896 296.487,209.086 299.601 C 208.409 302.205,208.996 339.394,209.762 342.400 C 211.906 350.817,215.041 354.825,223.200 359.582 C 225.063 360.668,227.542 362.673,229.741 364.872 C 231.859 366.990,234.431 369.084,236.141 370.083 C 239.693 372.157,239.487 371.976,238.788 372.407 C 237.943 372.930,161.573 372.892,160.800 372.368 C 160.297 372.028,160.394 371.820,161.400 371.087 C 164.172 369.064,167.725 365.011,170.803 360.362 C 174.974 354.062,176.740 352.000,181.612 347.750 C 189.805 340.602,190.109 339.059,189.922 305.600 L 189.800 283.800 188.859 283.667 C 187.136 283.423,186.115 283.970,182.976 286.822 C 178.307 291.063,175.601 292.117,168.147 292.596 C 159.607 293.146,149.051 298.009,141.930 304.675 C 139.456 306.990,139.165 307.108,138.229 306.172 C 136.665 304.608,136.931 301.628,139.232 294.957 C 142.285 286.101,144.582 283.354,152.080 279.592 C 159.152 276.044,159.652 273.289,154.157 268.139 C 150.404 264.621,151.688 263.049,159.341 261.790 C 166.224 260.658,170.644 258.136,173.460 253.733 C 177.078 248.078,171.869 244.618,164.983 248.102 C 159.315 250.969,148.400 252.971,148.400 251.145 C 148.400 246.295,156.496 239.746,167.600 235.614 C 173.396 233.457,174.754 231.719,174.905 226.269 C 175.020 222.109,174.763 221.714,172.326 222.323 C 170.948 222.668,169.712 222.601,166.200 221.990 C 160.534 221.005,157.739 220.997,155.493 221.960 C 148.060 225.146,156.836 214.486,165.200 210.168 C 168.550 208.439,175.079 204.308,178.336 201.857 C 185.959 196.120,186.050 185.331,178.436 190.016 C 175.605 191.758,172.153 193.060,169.525 193.377 C 167.054 193.675,160.941 192.952,160.547 192.315 C 159.891 191.252,164.245 187.930,169.932 185.154 C 178.053 181.191,180.991 178.188,181.491 173.336 C 181.820 170.149,180.189 169.454,177.000 171.422 C 172.734 174.054,171.200 174.549,166.400 174.838 C 158.824 175.294,155.393 176.677,152.217 180.554 C 149.568 183.785,148.715 182.995,149.270 177.826 C 150.608 165.369,153.672 160.442,163.842 154.393 C 177.412 146.322,182.737 140.306,181.806 134.100 C 181.243 130.349,179.863 130.221,175.888 133.548 C 174.497 134.712,173.352 135.276,171.688 135.619 C 170.430 135.878,168.840 136.256,168.155 136.458 C 167.470 136.660,164.500 136.786,161.555 136.737 C 156.854 136.659,155.946 136.754,154.116 137.512 C 152.014 138.383,150.800 138.105,150.800 136.752 C 150.800 133.124,164.998 122.846,180.547 115.217 C 187.056 112.024,189.643 109.000,188.411 106.025 C 187.526 103.891,184.903 103.457,181.000 104.800 C 177.951 105.849,170.118 105.974,169.737 104.980 C 169.246 103.700,172.654 101.031,177.600 98.819 C 179.250 98.081,181.375 97.120,182.323 96.684 C 184.667 95.604,186.000 93.573,186.000 91.081 C 186.000 87.792,185.747 87.600,181.410 87.600 C 177.192 87.600,176.930 87.455,177.991 85.711 C 179.705 82.892,185.232 79.193,190.052 77.638 C 194.623 76.164,193.011 72.411,187.800 72.395 C 182.661 72.380,182.762 71.388,188.300 67.496 C 193.152 64.085,195.021 62.300,195.415 60.703 C 195.696 59.563,195.647 59.502,191.843 56.262 C 190.498 55.116,190.653 54.000,192.157 54.000 C 194.560 54.000,196.444 50.916,197.844 44.694 C 198.678 40.988,199.252 40.143,199.741 41.900 M290.992 188.854 L 310.400 208.108 310.400 268.399 L 310.400 328.691 290.300 347.857 C 279.245 358.398,268.881 368.252,267.269 369.755 L 264.338 372.488 255.869 372.303 C 243.503 372.034,238.664 370.238,231.600 363.295 C 229.011 360.751,226.592 358.839,224.010 357.298 C 212.360 350.343,211.200 346.816,211.200 318.348 C 211.200 298.464,211.101 299.256,213.400 300.823 C 217.727 303.772,217.845 303.798,227.000 303.823 C 237.474 303.853,239.442 304.537,250.600 312.026 C 263.901 320.954,267.558 317.543,261.993 301.400 C 259.030 292.805,256.582 289.530,250.633 286.203 C 247.751 284.592,246.716 283.759,246.063 282.526 C 245.449 281.368,245.361 281.604,247.386 278.996 C 252.101 272.924,250.208 268.788,242.000 267.230 C 240.570 266.958,238.541 266.571,237.491 266.370 C 234.663 265.829,231.733 264.185,229.352 261.805 C 224.661 257.113,227.003 254.742,233.331 257.775 C 237.387 259.719,239.263 260.288,243.911 260.987 C 253.122 262.370,254.688 260.988,251.504 254.285 C 248.937 248.878,246.002 246.725,234.214 241.602 C 227.677 238.760,226.400 237.672,226.400 234.941 C 226.400 233.268,226.631 233.271,229.181 234.987 C 231.746 236.713,233.433 237.192,237.000 237.208 C 240.610 237.223,243.066 237.803,244.654 239.014 C 250.033 243.117,253.054 240.099,250.550 233.124 C 247.351 224.212,243.580 219.908,235.095 215.486 C 227.186 211.365,218.400 204.756,218.400 202.928 C 218.400 202.179,218.922 202.264,221.263 203.394 C 224.551 204.979,227.471 205.340,232.268 204.754 C 235.609 204.346,236.783 204.347,238.391 204.759 C 240.690 205.348,242.933 204.847,243.603 203.594 C 245.433 200.175,240.482 195.330,230.000 190.283 C 221.570 186.223,216.137 179.200,221.427 179.200 C 221.736 179.200,224.736 180.265,228.094 181.566 C 231.452 182.868,235.724 184.413,237.587 185.000 C 239.450 185.588,241.758 186.528,242.717 187.090 C 246.565 189.345,251.117 188.663,251.856 185.721 C 252.225 184.249,250.997 177.678,249.583 173.553 C 248.932 171.656,248.400 169.991,248.400 169.853 C 248.400 169.714,253.617 169.600,259.992 169.600 L 271.585 169.600 290.992 188.854 M151.600 276.775 C 151.600 276.935,150.309 277.770,148.732 278.633 C 142.516 282.030,139.880 285.586,136.842 294.673 C 134.401 301.976,134.283 305.942,136.447 307.958 C 138.161 309.554,141.389 309.010,143.089 306.838 C 146.988 301.857,160.238 295.508,167.800 294.998 C 176.175 294.433,179.732 293.106,184.097 288.919 C 188.083 285.094,187.806 283.690,187.761 307.434 C 187.702 338.969,187.792 338.565,178.966 346.970 C 173.922 351.775,172.728 353.173,169.437 358.132 C 161.129 370.651,157.767 372.375,142.389 372.000 L 134.178 371.800 116.189 354.628 C 106.295 345.184,96.084 335.412,93.497 332.913 L 88.794 328.370 88.897 302.485 L 89.000 276.600 119.800 276.400 C 150.359 276.202,151.600 276.216,151.600 276.775 " stroke="none" fill="#fbfbfb" fill-rule="evenodd"></path><path id="path3" d="M128.324 16.700 C 126.430 18.348,121.313 23.192,113.606 30.633 C 110.853 33.292,101.355 42.352,92.500 50.767 C 83.645 59.182,76.399 66.367,76.398 66.733 C 76.396 67.100,76.397 97.965,76.400 135.323 L 76.405 203.246 99.249 225.923 C 111.813 238.395,122.297 248.732,122.547 248.894 C 122.796 249.056,127.545 249.191,133.100 249.194 L 143.200 249.200 143.200 251.346 C 143.200 255.274,144.882 256.514,150.600 256.800 L 154.600 257.000 152.139 258.137 C 149.645 259.290,147.876 260.794,147.038 262.474 L 146.576 263.400 111.588 263.600 L 76.600 263.800 76.523 299.000 L 76.447 334.200 89.236 346.400 C 96.270 353.110,104.765 361.200,108.113 364.378 C 111.461 367.555,117.597 373.450,121.748 377.478 L 129.296 384.800 199.677 384.800 C 255.433 384.800,270.167 384.696,270.585 384.300 C 270.875 384.025,273.067 381.900,275.456 379.579 C 278.969 376.165,297.351 358.570,299.039 357.007 C 299.912 356.197,316.286 340.526,319.700 337.232 L 323.200 333.855 323.200 268.408 L 323.200 202.960 301.381 181.380 C 289.380 169.511,278.857 159.125,277.996 158.300 L 276.431 156.800 256.747 156.800 L 237.064 156.800 233.032 154.224 C 229.278 151.825,224.461 147.600,225.480 147.600 C 225.727 147.600,227.340 147.875,229.065 148.210 C 230.789 148.546,234.270 148.930,236.800 149.064 C 239.770 149.222,242.109 149.572,243.400 150.054 C 248.381 151.911,252.633 149.668,253.182 144.894 L 253.400 143.000 287.800 142.948 C 306.720 142.919,322.425 142.874,322.700 142.848 C 323.096 142.810,323.200 134.871,323.200 104.614 L 323.200 66.429 301.100 45.346 C 288.945 33.750,277.200 22.501,275.000 20.347 C 272.800 18.194,270.640 16.161,270.200 15.829 C 269.494 15.296,261.200 15.224,199.724 15.213 L 130.049 15.200 128.324 16.700 M272.143 18.328 C 284.008 29.656,319.010 62.988,320.702 64.570 L 322.804 66.536 322.702 104.561 L 322.600 142.586 287.800 142.593 L 253.000 142.600 252.752 144.635 C 252.182 149.302,248.446 151.394,243.800 149.648 C 242.508 149.162,240.120 148.798,237.056 148.620 C 232.901 148.379,228.598 147.767,225.385 146.961 C 222.163 146.152,227.798 151.754,233.773 155.300 L 237.649 157.600 257.180 157.600 L 276.711 157.600 299.756 180.443 L 322.800 203.285 322.787 268.543 L 322.775 333.800 305.887 349.853 C 296.599 358.682,284.649 370.067,279.331 375.153 L 269.661 384.400 199.687 384.400 L 129.713 384.400 127.696 382.500 C 126.587 381.455,114.680 370.082,101.237 357.226 L 76.796 333.852 76.898 299.026 L 77.000 264.200 111.876 264.098 L 146.751 263.996 147.645 262.405 C 148.640 260.634,150.448 259.294,153.300 258.212 C 154.345 257.816,155.200 257.336,155.200 257.146 C 155.200 256.956,155.198 256.665,155.196 256.500 C 155.194 256.335,153.502 256.262,151.437 256.338 C 145.571 256.554,143.402 255.028,143.659 250.866 L 143.774 249.000 133.325 248.800 L 122.875 248.600 99.838 225.857 L 76.800 203.114 76.800 134.827 L 76.800 66.541 80.900 62.531 C 84.621 58.893,94.266 49.591,95.355 48.591 C 95.600 48.366,103.367 40.969,112.615 32.153 C 121.864 23.337,129.694 16.020,130.015 15.893 C 130.337 15.767,161.804 15.649,199.943 15.632 L 269.285 15.600 272.143 18.328 M128.800 25.258 C 126.930 27.047,123.506 30.331,121.191 32.556 C 114.912 38.588,110.360 42.931,100.400 52.390 C 95.450 57.091,89.465 62.824,87.100 65.130 L 82.800 69.323 82.794 134.761 L 82.788 200.200 100.519 217.800 C 110.271 227.480,119.873 236.985,121.856 238.923 L 125.462 242.446 137.127 242.455 C 149.582 242.465,149.756 242.496,148.357 244.460 C 145.916 247.889,144.989 252.189,146.390 253.590 C 148.642 255.842,158.774 254.352,166.509 250.631 C 169.906 248.997,169.927 248.993,171.074 249.797 C 174.179 251.972,166.897 257.419,158.704 259.051 C 149.192 260.945,146.126 264.770,150.759 268.963 C 151.222 269.382,151.600 269.831,151.600 269.962 C 151.600 270.093,136.165 270.200,117.300 270.200 L 83.000 270.200 82.898 300.640 L 82.795 331.079 85.098 333.214 C 86.364 334.388,89.472 337.340,92.005 339.774 C 94.538 342.208,100.658 348.066,105.605 352.792 C 110.552 357.518,116.756 363.458,119.391 365.992 C 122.026 368.526,124.279 370.690,124.398 370.800 C 124.516 370.910,126.341 372.665,128.453 374.700 L 132.292 378.400 199.601 378.400 L 266.911 378.400 268.755 376.724 C 270.608 375.041,282.516 363.675,292.984 353.600 C 296.070 350.630,300.483 346.400,302.791 344.200 C 305.100 342.000,308.922 338.323,311.286 336.029 C 313.650 333.734,315.807 331.719,316.080 331.550 C 316.353 331.382,316.488 331.154,316.379 331.046 C 316.270 330.937,314.925 332.045,313.390 333.509 C 311.856 334.973,308.800 337.881,306.600 339.972 C 299.541 346.680,286.416 359.218,271.082 373.900 L 266.800 378.000 199.700 377.991 L 132.600 377.982 129.600 375.124 C 127.950 373.551,124.710 370.446,122.400 368.223 C 120.090 365.999,110.325 356.650,100.700 347.447 L 83.200 330.713 83.200 300.756 L 83.200 270.800 117.800 270.800 C 142.052 270.800,152.400 270.672,152.400 270.373 C 152.400 270.138,151.770 269.352,151.000 268.626 C 149.788 267.483,149.600 267.055,149.600 265.435 C 149.600 262.122,151.430 260.978,159.204 259.431 C 165.596 258.159,169.780 255.624,171.829 251.784 L 172.600 250.339 171.656 249.570 C 170.314 248.476,169.448 248.595,165.809 250.373 C 158.752 253.820,147.796 255.138,146.420 252.704 C 145.670 251.378,146.831 247.463,148.838 244.545 C 149.477 243.616,150.000 242.663,150.000 242.428 C 150.000 242.133,146.171 242.000,137.709 242.000 L 125.418 242.000 104.309 220.905 L 83.200 199.810 83.200 134.658 L 83.200 69.505 85.900 66.894 C 93.122 59.911,97.610 55.609,104.400 49.163 C 108.470 45.299,116.470 37.697,122.177 32.269 L 132.553 22.400 199.710 22.400 L 266.866 22.400 275.333 30.505 C 279.990 34.963,289.650 44.175,296.800 50.975 C 303.950 57.776,311.306 64.794,313.146 66.570 C 314.986 68.347,316.426 69.595,316.346 69.345 C 316.266 69.095,313.680 66.498,310.600 63.573 C 307.520 60.648,302.650 55.992,299.778 53.227 C 296.906 50.462,293.036 46.767,291.178 45.016 C 289.320 43.264,285.279 39.394,282.198 36.416 C 279.117 33.437,274.467 28.975,271.866 26.500 L 267.135 22.000 199.668 22.002 L 132.200 22.004 128.800 25.258 M132.061 30.515 C 130.597 31.898,125.530 36.711,120.800 41.211 C 116.070 45.711,111.998 49.575,111.751 49.796 C 111.504 50.018,109.342 52.090,106.946 54.400 C 104.550 56.710,99.487 61.553,95.695 65.162 L 88.800 71.725 88.784 134.762 L 88.767 197.800 108.284 217.093 L 127.800 236.387 143.800 236.392 L 159.800 236.398 163.600 234.803 C 171.498 231.487,172.265 230.830,172.474 227.200 L 172.600 225.000 169.400 224.722 C 167.640 224.569,165.300 224.265,164.200 224.046 C 161.035 223.416,158.164 223.535,155.704 224.400 C 152.013 225.697,150.689 225.181,150.727 222.458 C 150.791 217.832,155.885 212.392,164.338 207.923 C 175.121 202.223,181.600 196.496,181.600 192.665 C 181.600 190.878,181.680 190.880,178.740 192.604 C 173.792 195.504,169.088 196.312,162.200 195.447 C 156.567 194.740,156.565 190.789,162.197 186.704 C 164.055 185.357,164.976 184.859,170.890 182.008 C 175.699 179.690,179.085 176.217,178.724 173.973 C 178.609 173.257,178.466 173.290,176.800 174.406 C 174.221 176.134,171.700 176.779,165.861 177.204 C 159.380 177.675,157.686 178.393,153.752 182.342 C 147.918 188.198,145.629 185.270,147.407 174.221 C 149.137 163.468,152.156 158.800,160.786 153.531 C 172.100 146.623,175.890 143.472,178.614 138.708 C 180.176 135.976,179.683 132.972,178.004 134.995 C 175.939 137.484,170.543 138.899,162.800 138.983 C 157.815 139.037,156.677 139.173,154.703 139.951 C 149.589 141.965,146.841 137.793,150.100 132.964 C 152.975 128.705,166.420 119.452,177.400 114.177 C 184.129 110.944,187.168 108.407,185.998 106.998 C 185.323 106.185,183.808 106.247,181.096 107.200 C 178.531 108.102,171.756 108.316,169.105 107.580 C 166.061 106.735,166.055 104.722,169.086 101.544 C 171.354 99.166,172.181 98.676,179.697 95.256 C 181.591 94.394,182.635 93.637,183.201 92.714 C 184.567 90.490,184.258 90.225,180.037 90.000 C 175.408 89.753,174.295 88.864,175.129 86.078 C 175.964 83.291,181.421 78.616,186.218 76.577 C 188.615 75.559,189.487 74.811,188.300 74.792 C 179.592 74.652,178.874 70.939,186.554 65.772 C 193.350 61.200,193.485 60.930,190.401 58.093 C 187.027 54.990,187.111 52.000,190.573 52.000 C 193.296 52.000,194.169 50.387,196.201 41.600 C 197.059 37.887,197.628 36.945,199.226 36.594 C 200.937 36.219,201.017 36.358,202.169 41.692 C 203.689 48.727,204.411 50.000,206.885 50.000 C 210.388 50.000,210.400 53.715,206.905 56.529 C 205.330 57.797,206.426 59.200,208.993 59.200 C 213.423 59.200,213.957 62.681,210.076 66.264 L 207.811 68.356 208.636 69.478 C 209.089 70.095,210.617 71.465,212.030 72.523 C 218.734 77.541,219.729 80.431,215.560 82.775 C 213.935 83.688,213.641 84.177,214.516 84.512 C 215.942 85.059,221.561 89.734,222.700 91.320 C 225.544 95.282,224.212 97.391,218.862 97.397 C 212.773 97.403,214.057 100.552,221.400 103.623 C 232.056 108.079,235.300 111.108,233.545 114.962 C 232.578 117.082,228.747 117.727,222.877 116.758 C 215.562 115.550,215.201 117.918,222.328 120.354 C 226.728 121.858,235.727 126.988,238.628 129.646 C 239.430 130.380,240.581 130.401,274.828 130.302 L 310.200 130.200 310.303 100.948 L 310.405 71.696 302.303 63.912 C 297.846 59.631,287.558 49.799,279.440 42.064 L 264.680 28.000 199.701 28.000 L 134.722 28.000 132.061 30.515 M267.974 31.703 C 271.312 34.922,287.873 50.803,290.808 53.600 C 294.482 57.101,301.392 63.736,305.503 67.712 L 310.005 72.066 309.903 100.933 L 309.800 129.800 274.897 129.902 L 239.994 130.004 237.297 128.056 C 232.011 124.236,227.421 121.683,223.111 120.166 C 215.442 117.466,216.415 116.390,225.379 117.654 C 230.781 118.416,234.400 116.701,234.400 113.378 C 234.400 109.562,231.335 107.287,219.160 102.069 C 217.206 101.231,215.493 99.449,215.685 98.452 C 215.778 97.973,216.522 97.845,219.338 97.825 C 227.353 97.768,225.967 91.194,216.715 85.384 C 214.483 83.983,214.432 83.811,215.996 83.002 C 219.929 80.968,219.149 77.256,214.000 73.495 C 208.398 69.405,208.123 68.821,210.645 66.383 C 214.478 62.679,213.864 58.800,209.446 58.800 C 208.899 58.800,207.969 58.616,207.379 58.392 L 206.306 57.984 208.153 56.009 C 211.241 52.707,210.629 49.971,206.659 49.333 C 204.586 48.999,204.008 47.939,202.859 42.356 C 201.520 35.854,201.519 35.852,199.530 36.119 C 197.155 36.437,196.880 36.898,195.237 43.309 C 193.497 50.093,193.016 50.995,190.930 51.387 C 186.511 52.216,186.181 55.305,190.156 58.628 C 192.794 60.833,192.564 61.224,186.058 65.583 C 179.542 69.950,178.942 74.234,184.738 75.013 C 187.562 75.392,187.568 75.418,185.065 76.540 C 180.290 78.681,174.902 83.869,174.524 86.691 C 174.159 89.410,175.199 90.161,179.663 90.400 C 185.365 90.705,184.324 92.892,177.006 95.983 C 168.533 99.562,164.417 104.397,167.432 107.230 C 168.994 108.698,177.519 108.910,181.571 107.581 C 189.128 105.104,186.258 109.126,177.184 113.729 C 163.147 120.850,150.758 129.768,148.745 134.199 C 146.595 138.930,149.732 142.154,154.804 140.427 C 157.077 139.653,158.424 139.498,163.448 139.435 C 171.260 139.337,175.766 138.092,177.985 135.419 C 179.456 133.645,179.601 135.635,178.201 138.397 C 175.945 142.851,171.685 146.450,161.600 152.424 C 153.739 157.081,150.743 160.528,148.441 167.561 C 143.707 182.028,147.199 190.712,154.406 182.393 C 157.245 179.116,158.953 178.421,165.800 177.759 C 172.242 177.137,173.277 176.884,176.237 175.214 C 178.746 173.798,179.026 174.216,177.227 176.699 C 175.555 179.008,174.068 180.014,168.278 182.752 C 157.323 187.935,153.638 194.908,161.400 195.768 C 167.391 196.432,169.422 196.475,171.563 195.986 C 174.075 195.411,179.341 193.143,179.768 192.452 C 180.203 191.747,181.201 191.921,181.191 192.700 C 181.145 196.346,174.339 202.155,163.356 207.921 C 153.940 212.864,147.674 221.272,150.870 224.674 C 151.944 225.818,153.331 225.852,156.000 224.800 C 158.554 223.793,160.104 223.797,165.832 224.823 C 168.360 225.275,170.781 225.533,171.214 225.396 C 171.918 225.172,172.000 225.339,172.000 226.993 C 172.000 230.323,171.221 231.147,166.200 233.126 C 165.100 233.560,163.177 234.384,161.926 234.957 L 159.651 236.000 143.742 236.000 L 127.833 236.000 108.617 216.807 L 89.400 197.615 89.294 134.865 L 89.188 72.116 97.894 63.783 C 102.682 59.200,108.490 53.652,110.800 51.454 C 113.110 49.257,116.980 45.537,119.400 43.189 C 121.820 40.841,126.300 36.553,129.356 33.660 L 134.911 28.400 199.730 28.400 L 264.548 28.400 267.974 31.703 M316.399 102.800 L 316.200 135.800 281.300 135.902 C 245.494 136.007,244.609 136.046,246.840 137.425 C 248.040 138.166,250.400 142.587,250.400 144.093 C 250.400 147.202,247.756 148.693,244.588 147.369 C 243.742 147.016,240.864 146.572,238.039 146.361 C 232.991 145.982,227.422 145.158,224.803 144.403 C 223.239 143.952,222.555 143.888,222.892 144.225 C 223.744 145.077,230.683 146.303,237.516 146.809 C 240.439 147.025,243.476 147.472,244.265 147.801 C 250.107 150.243,252.932 145.207,248.968 139.418 C 247.996 137.997,247.200 136.737,247.200 136.618 C 247.200 136.498,262.767 136.400,281.792 136.400 L 316.385 136.400 316.602 135.500 C 316.722 135.005,316.770 120.020,316.709 102.200 L 316.598 69.800 316.399 102.800 M218.959 142.964 C 217.907 145.703,225.869 153.481,235.800 159.415 C 238.660 161.124,241.429 162.855,241.954 163.261 C 242.843 163.950,243.958 164.001,258.354 164.015 L 273.800 164.030 295.000 185.101 L 316.200 206.172 316.402 268.386 L 316.605 330.600 316.706 268.400 L 316.807 206.200 295.466 184.900 L 274.126 163.600 258.841 163.600 L 243.556 163.600 236.114 159.100 C 227.963 154.172,223.495 150.352,220.616 145.852 C 219.017 143.352,219.017 142.806,220.617 143.535 C 222.343 144.321,222.699 144.017,221.029 143.184 C 219.154 142.249,219.230 142.257,218.959 142.964 M248.400 169.853 C 248.400 169.991,248.932 171.656,249.583 173.553 C 250.997 177.678,252.225 184.249,251.856 185.721 C 251.117 188.663,246.565 189.345,242.717 187.090 C 241.758 186.528,239.450 185.588,237.587 185.000 C 235.724 184.413,231.452 182.868,228.094 181.566 C 221.882 179.159,221.349 179.015,220.233 179.443 C 219.359 179.778,219.437 180.506,220.594 182.788 C 222.174 185.906,224.102 187.442,230.000 190.283 C 240.482 195.330,245.433 200.175,243.603 203.594 C 242.933 204.847,240.690 205.348,238.391 204.759 C 236.783 204.347,235.609 204.346,232.268 204.754 C 227.471 205.340,224.551 204.979,221.263 203.394 C 218.922 202.264,218.400 202.179,218.400 202.928 C 218.400 204.756,227.186 211.365,235.095 215.486 C 243.580 219.908,247.351 224.212,250.550 233.124 C 253.054 240.099,250.033 243.117,244.654 239.014 C 243.066 237.803,240.610 237.223,237.000 237.208 C 233.433 237.192,231.746 236.713,229.181 234.987 C 226.631 233.271,226.400 233.268,226.400 234.941 C 226.400 237.672,227.677 238.760,234.214 241.602 C 246.002 246.725,248.937 248.878,251.504 254.285 C 254.688 260.988,253.122 262.370,243.911 260.987 C 239.263 260.288,237.387 259.719,233.331 257.775 C 227.003 254.742,224.661 257.113,229.352 261.805 C 231.733 264.185,234.663 265.829,237.491 266.370 C 238.541 266.571,240.570 266.958,242.000 267.230 C 250.208 268.788,252.101 272.924,247.386 278.996 C 245.361 281.604,245.449 281.368,246.063 282.526 C 246.714 283.756,247.750 284.591,250.604 286.187 C 256.507 289.488,258.938 292.684,261.841 300.961 C 263.006 304.283,263.968 306.705,263.979 306.344 C 264.009 305.400,260.941 296.651,259.767 294.336 C 258.528 291.890,254.887 288.245,251.841 286.400 C 247.544 283.798,247.011 283.378,246.628 282.287 C 246.316 281.400,246.409 280.994,247.127 280.099 C 252.994 272.784,251.006 268.271,241.168 266.573 C 234.837 265.481,232.290 264.320,229.228 261.133 C 225.920 257.690,227.672 255.218,231.726 257.609 C 234.022 258.964,239.304 260.721,243.051 261.377 C 252.924 263.104,255.103 261.576,252.329 254.872 C 249.980 249.197,245.014 245.370,234.600 241.209 C 228.659 238.836,227.899 238.317,227.183 236.149 C 226.608 234.405,227.008 233.790,228.072 234.781 C 230.110 236.680,233.159 237.650,238.046 237.956 C 242.195 238.215,242.916 238.371,244.269 239.302 C 250.547 243.622,253.727 240.495,250.958 232.724 C 247.818 223.911,243.835 219.509,234.600 214.645 C 227.699 211.010,218.439 204.227,219.259 203.408 C 219.372 203.294,220.621 203.689,222.033 204.285 C 224.362 205.269,224.999 205.361,228.900 205.272 C 236.852 205.090,237.793 205.101,239.818 205.394 C 241.647 205.659,241.957 205.585,243.118 204.607 C 247.137 201.226,242.057 195.460,230.000 189.718 C 224.257 186.984,222.812 185.890,221.180 183.045 C 218.887 179.046,219.819 178.888,227.675 181.945 C 231.044 183.256,235.150 184.733,236.800 185.228 C 238.450 185.722,240.880 186.677,242.200 187.349 C 247.696 190.147,252.400 188.914,252.400 184.675 C 252.400 182.376,251.072 176.031,249.999 173.200 C 249.540 171.990,249.127 170.820,249.082 170.600 C 249.029 170.343,252.996 170.162,260.184 170.094 L 271.368 169.987 290.684 189.288 L 310.000 208.589 310.000 268.451 L 310.000 328.313 300.900 337.084 C 295.895 341.908,285.616 351.761,278.059 358.980 L 264.317 372.105 256.059 371.889 C 243.638 371.564,239.071 369.860,231.768 362.825 C 229.024 360.182,226.480 358.174,224.127 356.796 C 213.046 350.301,211.929 347.054,211.699 320.676 C 211.506 298.464,211.315 299.937,214.143 301.815 C 217.664 304.153,219.212 304.443,227.600 304.340 C 236.956 304.226,238.766 304.842,249.156 311.686 C 257.620 317.261,259.998 318.208,262.524 317.009 C 264.766 315.945,265.745 311.320,264.443 307.944 C 264.203 307.324,264.150 308.304,264.286 310.800 C 264.716 318.694,261.026 319.025,250.600 312.026 C 239.442 304.537,237.474 303.853,227.000 303.823 C 217.845 303.798,217.727 303.772,213.400 300.823 C 211.101 299.256,211.200 298.464,211.200 318.348 C 211.200 346.816,212.360 350.343,224.010 357.298 C 226.592 358.839,229.011 360.751,231.600 363.295 C 238.664 370.238,243.503 372.034,255.869 372.303 L 264.338 372.488 267.269 369.755 C 268.881 368.252,279.245 358.398,290.300 347.857 L 310.400 328.691 310.400 268.399 L 310.400 208.108 290.992 188.854 L 271.585 169.600 259.992 169.600 C 253.617 169.600,248.400 169.714,248.400 169.853 M119.800 276.400 L 89.000 276.600 88.897 302.485 L 88.794 328.370 93.497 332.913 C 96.084 335.412,106.295 345.184,116.189 354.628 L 134.178 371.800 142.389 372.000 C 157.767 372.375,161.129 370.651,169.437 358.132 C 172.728 353.173,173.922 351.775,178.966 346.970 C 187.792 338.565,187.702 338.969,187.761 307.434 C 187.806 283.690,188.083 285.094,184.097 288.919 C 179.702 293.135,176.169 294.441,167.600 295.016 C 165.290 295.171,163.133 295.442,162.806 295.617 C 161.976 296.064,168.230 295.647,172.800 294.952 C 177.701 294.206,180.737 292.780,184.077 289.656 C 185.521 288.305,186.814 287.200,186.951 287.200 C 187.363 287.200,187.230 325.856,186.802 330.600 C 186.041 339.029,185.514 340.081,178.971 346.220 C 173.702 351.162,171.888 353.347,167.801 359.670 C 161.297 369.734,157.511 371.602,143.638 371.596 L 134.600 371.592 127.200 364.514 C 123.130 360.622,113.770 351.682,106.400 344.649 C 99.030 337.616,92.145 331.009,91.100 329.967 L 89.200 328.073 89.206 302.937 C 89.209 289.111,89.356 277.574,89.531 277.297 C 89.784 276.900,96.188 276.816,120.217 276.897 L 150.583 277.000 147.792 278.661 C 141.253 282.551,138.987 285.937,135.545 296.963 C 132.242 307.539,137.041 313.256,143.800 306.797 C 147.392 303.365,151.423 300.967,161.200 296.446 C 162.180 295.993,162.176 295.988,161.000 296.208 C 157.482 296.866,145.501 303.935,143.226 306.695 C 139.304 311.453,134.182 308.339,134.964 301.673 C 135.243 299.290,137.927 290.964,139.500 287.600 C 140.848 284.716,145.027 280.657,148.732 278.633 C 153.603 275.970,156.116 276.164,119.800 276.400 " stroke="none" fill="#d49898" fill-rule="evenodd"></path><path id="path4" d="M198.671 41.500 C 198.574 41.665,198.202 43.102,197.844 44.694 C 196.444 50.916,194.560 54.000,192.157 54.000 C 190.653 54.000,190.498 55.116,191.843 56.262 C 195.647 59.502,195.696 59.563,195.415 60.703 C 195.021 62.300,193.152 64.085,188.300 67.496 C 182.762 71.388,182.661 72.380,187.800 72.395 C 193.011 72.411,194.623 76.164,190.052 77.638 C 185.232 79.193,179.705 82.892,177.991 85.711 C 176.930 87.455,177.192 87.600,181.410 87.600 C 185.747 87.600,186.000 87.792,186.000 91.081 C 186.000 93.573,184.667 95.604,182.323 96.684 C 181.375 97.120,179.250 98.081,177.600 98.819 C 172.654 101.031,169.246 103.700,169.737 104.980 C 170.118 105.974,177.951 105.849,181.000 104.800 C 184.903 103.457,187.526 103.891,188.411 106.025 C 189.643 109.000,187.056 112.024,180.547 115.217 C 164.998 122.846,150.800 133.124,150.800 136.752 C 150.800 138.105,152.014 138.383,154.116 137.512 C 155.946 136.754,156.854 136.659,161.555 136.737 C 164.500 136.786,167.470 136.660,168.155 136.458 C 168.840 136.256,170.430 135.878,171.688 135.619 C 173.352 135.276,174.497 134.712,175.888 133.548 C 179.863 130.221,181.243 130.349,181.806 134.100 C 182.737 140.306,177.412 146.322,163.842 154.393 C 153.672 160.442,150.608 165.369,149.270 177.826 C 148.715 182.995,149.568 183.785,152.217 180.554 C 155.393 176.677,158.824 175.294,166.400 174.838 C 171.200 174.549,172.734 174.054,177.000 171.422 C 180.189 169.454,181.820 170.149,181.491 173.336 C 180.991 178.188,178.053 181.191,169.932 185.154 C 164.245 187.930,159.891 191.252,160.547 192.315 C 160.941 192.952,167.054 193.675,169.525 193.377 C 172.153 193.060,175.605 191.758,178.436 190.016 C 186.050 185.331,185.959 196.120,178.336 201.857 C 175.079 204.308,168.550 208.439,165.200 210.168 C 156.836 214.486,148.060 225.146,155.493 221.960 C 157.739 220.997,160.534 221.005,166.200 221.990 C 169.712 222.601,170.948 222.668,172.326 222.323 C 174.763 221.714,175.020 222.109,174.905 226.269 C 174.754 231.719,173.396 233.457,167.600 235.614 C 162.621 237.467,154.670 241.779,152.708 243.690 C 150.293 246.042,147.547 251.600,148.800 251.600 C 149.020 251.600,149.200 251.220,149.200 250.756 C 149.200 246.146,154.952 241.511,166.994 236.419 C 173.913 233.494,175.160 232.053,175.501 226.596 C 175.796 221.862,175.525 221.504,171.878 221.822 C 169.901 221.994,168.061 221.873,166.000 221.437 C 162.131 220.616,157.352 220.610,155.406 221.423 C 153.549 222.199,153.360 222.024,154.232 220.337 C 156.069 216.785,159.697 213.626,165.400 210.616 C 170.328 208.014,177.632 203.176,180.060 200.905 C 187.347 194.089,185.457 184.884,177.778 189.797 C 173.599 192.470,163.097 194.031,161.310 192.244 C 160.508 191.442,164.850 188.192,170.251 185.550 C 176.704 182.395,178.945 180.629,180.687 177.328 C 183.998 171.053,181.822 167.902,176.458 171.203 C 172.609 173.571,171.082 174.022,165.696 174.381 C 158.479 174.863,154.988 176.335,151.782 180.249 C 149.709 182.778,149.437 182.571,149.760 178.705 C 150.864 165.464,153.638 161.153,165.718 153.908 C 178.795 146.066,184.613 138.185,181.761 132.175 C 180.625 129.781,179.546 129.932,175.766 133.010 C 172.806 135.421,169.588 136.163,162.000 136.184 C 157.245 136.197,155.818 136.342,154.077 136.987 C 152.285 137.652,151.901 137.687,151.607 137.211 C 149.965 134.554,164.923 123.382,179.800 116.154 C 187.985 112.177,191.029 108.171,188.287 104.983 C 186.986 103.471,184.473 103.257,180.869 104.352 C 177.937 105.242,170.678 105.574,170.223 104.837 C 169.682 103.961,174.016 100.911,178.743 98.841 C 185.353 95.947,187.456 93.498,186.616 89.673 C 186.133 87.472,185.131 86.985,181.357 87.119 C 177.320 87.262,177.167 86.970,179.900 84.345 C 182.961 81.404,184.699 80.286,188.519 78.800 C 195.305 76.161,195.058 72.014,188.113 71.995 C 183.490 71.981,183.478 71.427,188.031 68.309 C 196.867 62.259,197.761 60.207,193.112 56.648 L 191.084 55.097 192.580 54.582 C 195.490 53.582,196.722 51.552,198.243 45.250 C 199.034 41.975,199.368 41.948,200.019 45.107 C 200.990 49.811,202.519 52.011,205.232 52.607 L 206.483 52.882 205.089 54.341 C 201.675 57.914,202.853 61.184,207.797 61.862 C 208.789 61.998,209.600 62.273,209.600 62.475 C 209.600 62.891,206.752 65.595,206.310 65.598 C 205.702 65.602,204.790 68.020,205.032 68.987 C 205.392 70.418,208.099 73.345,210.944 75.376 C 212.295 76.341,213.850 77.612,214.400 78.199 L 215.400 79.268 214.544 79.934 C 214.073 80.300,213.143 80.898,212.478 81.262 C 209.162 83.076,209.420 85.292,213.168 87.184 C 214.606 87.910,216.732 89.555,218.482 91.297 L 221.400 94.200 217.808 94.317 C 213.260 94.465,212.399 95.079,212.401 98.170 C 212.404 102.036,213.792 103.352,221.446 106.747 C 232.542 111.668,234.499 114.851,226.007 114.167 C 211.160 112.970,208.031 118.465,221.000 122.960 C 229.553 125.925,240.759 134.029,245.868 140.944 C 248.364 144.323,248.116 145.666,245.200 144.557 C 244.430 144.264,240.769 143.743,237.064 143.398 C 229.191 142.666,226.285 142.059,221.476 140.144 C 217.599 138.600,215.992 138.825,216.006 140.909 C 216.012 141.774,216.027 141.770,216.515 140.800 C 217.228 139.383,218.588 139.372,221.649 140.760 C 225.776 142.632,230.104 143.429,240.378 144.211 C 242.235 144.353,244.442 144.743,245.282 145.079 C 248.459 146.351,248.899 144.075,246.177 140.454 C 240.993 133.557,230.002 125.621,221.431 122.585 C 210.494 118.710,211.216 113.722,222.586 114.605 C 228.244 115.044,230.281 114.997,230.987 114.411 C 233.236 112.544,229.068 109.345,218.639 104.937 C 213.575 102.796,211.675 99.708,213.269 96.209 C 213.848 94.938,214.604 94.743,218.386 94.886 C 220.899 94.982,221.394 94.895,221.508 94.339 C 221.776 93.033,216.717 88.390,212.921 86.459 C 209.820 84.882,209.955 83.044,213.298 81.350 C 216.632 79.661,216.358 78.808,211.255 74.998 C 204.804 70.180,204.239 68.417,208.013 64.881 C 210.847 62.226,210.843 61.791,207.983 61.398 C 203.399 60.767,202.189 57.637,205.400 54.715 C 207.357 52.934,207.602 52.400,206.460 52.400 C 203.559 52.400,201.752 50.242,200.601 45.400 C 200.235 43.860,199.848 42.285,199.741 41.900 C 199.540 41.179,198.982 40.970,198.671 41.500 M216.027 143.313 C 215.918 147.826,223.055 155.141,233.867 161.600 C 244.421 167.905,246.522 170.690,248.601 181.128 C 249.615 186.217,248.653 186.733,243.121 184.067 C 241.734 183.398,238.800 182.285,236.600 181.592 C 234.400 180.899,230.395 179.448,227.701 178.366 C 220.399 175.436,217.146 175.963,216.878 180.118 C 216.584 184.673,220.369 188.834,228.268 192.638 C 234.197 195.494,236.415 196.866,239.100 199.337 C 240.991 201.078,241.446 202.705,239.900 202.198 C 238.012 201.579,235.262 201.518,231.505 202.014 C 227.669 202.520,227.562 202.512,224.505 201.453 C 219.951 199.876,219.494 199.842,222.400 201.292 C 224.890 202.535,225.170 202.585,229.000 202.466 C 233.811 202.317,238.099 202.323,239.990 202.483 C 245.046 202.910,237.864 196.602,227.944 191.903 C 219.353 187.833,214.709 180.967,218.431 177.836 C 220.255 176.300,221.590 176.499,229.080 179.426 C 232.776 180.870,236.978 182.378,238.418 182.778 C 239.858 183.177,241.960 183.971,243.087 184.543 C 248.997 187.537,250.319 186.643,249.022 180.526 C 246.856 170.305,244.524 167.353,233.416 160.779 C 224.262 155.360,218.295 149.374,216.580 143.886 C 216.128 142.439,216.050 142.358,216.027 143.313 M215.280 199.680 C 212.093 202.867,220.205 210.833,234.200 218.256 C 241.639 222.203,246.256 227.785,248.198 235.181 C 248.882 237.786,248.743 238.015,247.074 237.042 C 246.373 236.633,245.259 235.989,244.597 235.610 C 243.743 235.122,242.110 234.862,238.971 234.713 C 233.865 234.471,232.028 233.825,229.139 231.255 C 225.218 227.769,222.991 229.861,223.792 236.275 C 224.190 239.456,226.103 241.357,230.800 243.237 C 243.234 248.212,248.012 251.815,249.794 257.561 L 250.092 258.521 246.146 258.287 C 241.896 258.035,237.325 256.724,233.233 254.581 C 225.405 250.482,220.749 256.868,226.828 263.366 C 230.423 267.210,232.676 268.225,242.108 270.255 C 247.879 271.496,248.512 273.246,244.748 277.545 C 241.545 281.203,242.764 285.337,247.800 287.895 C 254.200 291.147,256.546 294.181,259.517 303.050 C 263.574 315.158,262.389 316.298,252.468 309.829 C 239.769 301.548,236.954 300.547,227.631 300.998 C 220.648 301.337,218.760 300.948,215.046 298.409 C 212.435 296.624,210.981 296.401,209.544 297.565 L 208.600 298.330 208.601 319.265 C 208.602 338.044,208.676 340.487,209.316 342.989 C 211.090 349.920,215.195 355.415,221.250 358.963 C 225.345 361.363,227.048 362.708,230.512 366.281 C 231.988 367.802,234.296 369.667,235.642 370.424 L 238.089 371.800 218.845 371.904 C 208.260 371.961,190.949 371.961,180.376 371.904 L 161.153 371.800 163.221 370.223 C 165.696 368.336,168.386 365.012,172.492 358.769 C 175.034 354.904,176.481 353.248,181.232 348.769 C 190.561 339.972,190.482 340.327,190.477 307.022 C 190.474 285.246,190.430 283.812,189.760 283.322 C 188.253 282.220,186.192 283.148,182.384 286.642 C 178.054 290.615,175.983 291.426,168.600 292.040 C 159.200 292.821,147.436 298.156,141.419 304.368 C 139.831 306.007,138.699 306.408,138.154 305.526 C 136.512 302.868,141.121 288.848,144.861 285.127 C 146.377 283.617,147.334 282.906,151.056 280.524 C 151.465 280.261,151.596 280.036,151.346 280.024 C 150.620 279.986,146.360 282.985,144.458 284.872 C 140.958 288.345,136.431 300.881,137.352 304.551 C 138.039 307.288,139.107 307.317,141.930 304.675 C 149.051 298.009,159.607 293.146,168.147 292.596 C 175.601 292.117,178.307 291.063,182.976 286.822 C 186.115 283.970,187.136 283.423,188.859 283.667 L 189.800 283.800 189.922 305.600 C 190.109 339.059,189.805 340.602,181.612 347.750 C 176.740 352.000,174.974 354.062,170.803 360.362 C 167.725 365.011,164.172 369.064,161.400 371.087 C 160.394 371.820,160.297 372.028,160.800 372.368 C 161.573 372.892,237.943 372.930,238.788 372.407 C 239.487 371.976,239.693 372.157,236.141 370.083 C 234.431 369.084,231.859 366.990,229.741 364.872 C 227.542 362.673,225.063 360.668,223.200 359.582 C 215.041 354.825,211.906 350.817,209.762 342.400 C 208.996 339.394,208.409 302.205,209.086 299.601 C 209.896 296.487,211.252 296.548,216.615 299.940 C 219.307 301.642,222.064 302.052,227.699 301.586 C 236.001 300.900,239.681 302.128,250.688 309.257 C 263.258 317.399,264.425 316.583,259.926 302.800 C 257.190 294.415,255.011 291.394,249.516 288.366 C 243.527 285.066,241.926 281.470,244.945 278.101 C 249.235 273.315,247.882 270.328,241.000 269.395 C 231.590 268.119,224.090 262.727,224.478 257.518 C 224.742 253.975,228.826 252.996,233.660 255.317 C 240.967 258.825,250.400 260.380,250.400 258.076 C 250.400 253.245,243.885 247.969,232.077 243.239 C 225.475 240.595,224.499 239.569,224.157 234.918 C 223.776 229.733,225.347 228.832,229.265 231.989 C 232.323 234.454,234.606 235.200,239.085 235.200 C 242.619 235.200,243.988 235.592,246.556 237.341 C 249.455 239.315,249.857 238.470,248.255 233.762 C 245.594 225.937,241.643 221.514,233.600 217.353 C 223.297 212.023,216.088 206.007,215.361 202.132 C 214.986 200.132,215.731 199.457,217.984 199.755 C 219.236 199.920,219.614 199.873,219.200 199.603 C 218.359 199.055,215.856 199.104,215.280 199.680 M166.160 247.045 C 162.682 248.899,158.084 250.371,154.297 250.844 C 152.264 251.097,150.330 251.464,150.000 251.658 C 149.576 251.908,149.693 251.957,150.400 251.826 C 150.950 251.724,152.657 251.523,154.193 251.379 C 157.674 251.052,161.367 249.929,165.000 248.092 C 171.871 244.619,177.072 248.087,173.460 253.733 C 170.644 258.136,166.224 260.658,159.341 261.790 C 151.688 263.049,150.404 264.621,154.157 268.139 C 159.178 272.845,159.027 276.088,153.661 278.783 C 152.705 279.263,152.018 279.751,152.134 279.868 C 152.584 280.317,156.623 277.732,157.489 276.441 C 159.220 273.858,158.038 270.549,154.402 267.800 C 150.747 265.037,152.648 263.193,160.184 262.190 C 169.349 260.970,177.802 252.615,174.333 248.205 C 172.484 245.855,169.253 245.396,166.160 247.045 " stroke="none" fill="#99cbc3" fill-rule="evenodd"></path></g></svg>