<?xml version="1.0" standalone="no"?>
<!DOCTYPE svg PUBLIC "-//W3C//DTD SVG 20010904//EN"
 "http://www.w3.org/TR/2001/REC-SVG-20010904/DTD/svg10.dtd">
<svg version="1.0" xmlns="http://www.w3.org/2000/svg"
 width="900.000000pt" height="900.000000pt" viewBox="0 0 900.000000 900.000000"
 preserveAspectRatio="xMidYMid meet">

<g transform="translate(0.000000,900.000000) scale(0.100000,-0.100000)"
fill="#000000" stroke="none">
<path d="M2895 8623 c-29 -26 -222 -211 -690 -657 -115 -111 -262 -250 -325
-310 -63 -60 -125 -119 -137 -133 l-23 -24 0 -1532 0 -1532 523 -517 522 -517
233 -1 232 0 0 -51 c0 -45 4 -55 35 -86 l35 -35 95 3 c52 2 97 0 100 -3 7 -7
-32 -33 -65 -43 -37 -11 -89 -53 -111 -89 l-19 -31 -787 -5 -788 -5 -3 -781
-2 -780 287 -275 c157 -151 401 -384 542 -518 141 -134 281 -268 311 -297 l54
-54 1581 0 1580 1 130 127 c72 70 223 215 335 322 113 107 306 292 430 411
124 119 240 229 258 244 l32 27 0 1474 0 1474 -517 515 -518 514 -443 1 -442
0 -91 56 c-95 59 -209 157 -197 169 4 5 45 0 90 -8 46 -9 130 -20 188 -23 58
-4 130 -15 161 -25 45 -15 63 -16 95 -8 66 18 104 67 104 134 l0 35 785 0 785
0 0 859 0 859 -84 79 c-91 84 -633 601 -831 793 -66 64 -156 151 -201 193
l-80 77 -1570 0 -1569 0 -30 -27z m3408 -400 c166 -158 358 -341 427 -408 203
-196 323 -310 358 -340 l32 -28 0 -759 0 -758 -785 0 -786 0 42 -56 c63 -85
70 -133 26 -181 -27 -31 -77 -39 -115 -19 -18 9 -81 19 -163 26 -150 12 -255
31 -342 61 -32 12 -61 18 -64 15 -11 -11 70 -121 137 -186 43 -41 118 -96 206
-149 77 -46 151 -92 166 -102 25 -18 52 -19 375 -19 l348 0 477 -477 478 -478
0 -1407 0 -1406 -202 -193 c-112 -106 -257 -245 -323 -309 -66 -64 -225 -216
-354 -338 l-233 -222 -1517 0 -1516 1 -91 87 c-50 48 -281 269 -514 492 -233
223 -444 424 -467 446 l-43 41 2 679 3 679 780 5 c439 3 772 9 763 13 -25 13
-58 70 -58 100 0 39 53 93 108 111 26 8 77 20 113 26 111 17 171 44 237 104
47 43 67 83 51 102 -18 22 -50 17 -133 -22 -177 -81 -400 -107 -438 -50 -21
31 5 130 52 196 11 16 20 33 20 39 0 8 -78 11 -272 11 l-272 -1 -478 478 -478
478 0 1466 0 1466 198 189 c108 104 242 232 297 284 55 52 199 190 320 306
121 115 240 229 265 252 l45 41 1508 1 1508 0 302 -287z"/>
<path d="M2887 8223 c-80 -76 -310 -295 -511 -487 l-366 -348 0 -1417 0 -1416
433 -433 432 -432 358 0 358 0 97 40 c172 72 175 74 187 151 l7 44 -99 14
c-165 23 -230 24 -274 7 -160 -64 -174 87 -21 237 64 64 109 96 185 134 69 35
196 115 283 180 77 57 134 142 120 178 -6 16 -8 16 -24 2 -66 -60 -261 -110
-345 -89 -25 7 -64 12 -86 12 -44 0 -81 29 -81 62 0 68 93 151 263 232 135 65
168 92 206 164 18 34 8 37 -36 8 -61 -40 -121 -57 -228 -62 -145 -8 -185 -24
-272 -106 -60 -57 -78 -68 -106 -68 -68 0 -86 54 -67 196 26 201 77 331 165
418 33 34 114 90 217 152 172 103 248 168 313 264 20 30 35 64 35 81 l0 29
-47 -33 c-75 -52 -155 -71 -318 -73 -103 -1 -150 -6 -177 -18 -50 -22 -90 -20
-121 4 -34 27 -43 76 -23 124 42 100 335 312 648 467 118 59 188 109 188 135
0 25 -28 27 -96 5 -82 -26 -235 -29 -289 -6 -105 43 -28 163 160 251 52 24 98
44 102 44 18 0 63 47 69 73 l6 27 -84 0 c-96 0 -121 15 -121 70 0 62 121 183
239 237 l59 27 -49 8 c-63 9 -100 36 -104 75 -4 41 21 69 132 147 52 37 102
76 112 87 18 20 18 21 -11 42 -54 39 -85 78 -85 108 0 37 32 69 68 69 15 0 32
4 39 8 20 13 50 92 73 194 25 113 42 139 89 141 41 2 44 -2 72 -133 27 -130
41 -160 75 -160 38 0 83 -27 90 -54 8 -31 -9 -63 -54 -104 -31 -27 -34 -34
-22 -42 8 -5 27 -10 42 -10 67 0 116 -47 103 -97 -3 -16 -29 -49 -56 -75 -49
-46 -50 -48 -34 -71 9 -14 41 -43 73 -65 103 -72 132 -107 132 -160 0 -32 -20
-60 -66 -90 -14 -9 -16 -14 -6 -18 33 -15 163 -127 186 -161 32 -47 34 -95 4
-123 -18 -17 -35 -20 -100 -20 -70 0 -78 -2 -78 -19 0 -35 35 -60 160 -116
198 -87 260 -140 260 -218 0 -27 -7 -41 -30 -60 -40 -34 -94 -41 -196 -27 -97
14 -162 7 -144 -15 6 -8 35 -21 63 -31 130 -42 259 -111 384 -205 l52 -39 788
3 788 2 3 651 2 650 -107 105 c-117 113 -437 420 -733 702 l-185 176 -1462 1
-1462 0 -144 -137z"/>
<path d="M4456 7962 c-30 -126 -65 -178 -127 -191 l-33 -7 52 -39 c53 -41 69
-69 58 -103 -10 -31 -84 -98 -173 -159 -46 -31 -83 -60 -83 -64 0 -10 39 -19
87 -19 55 0 88 -14 108 -44 15 -23 15 -27 0 -49 -8 -13 -33 -32 -55 -41 -22
-9 -59 -24 -82 -33 -67 -27 -175 -111 -199 -156 -10 -17 -5 -18 71 -15 76 3
83 1 101 -21 26 -32 25 -93 -3 -143 -23 -40 -49 -55 -223 -133 -42 -19 -125
-82 -125 -95 0 -4 37 -10 83 -12 61 -4 98 0 147 13 106 31 169 20 190 -31 32
-78 -32 -150 -208 -236 -129 -63 -356 -199 -454 -272 -180 -133 -239 -235
-112 -192 44 16 80 19 173 18 159 -2 238 17 311 77 92 75 145 51 145 -65 0
-46 -6 -66 -33 -111 -71 -117 -164 -197 -371 -320 -67 -40 -144 -92 -170 -115
-54 -48 -100 -131 -124 -219 -14 -50 -47 -239 -47 -267 0 -20 30 -4 55 28 67
87 147 120 329 134 116 9 122 11 199 55 44 25 90 45 103 45 57 0 70 -67 29
-153 -34 -72 -95 -128 -195 -177 -158 -78 -170 -85 -212 -127 -23 -24 -39 -45
-37 -48 3 -3 46 -8 95 -11 106 -8 178 9 265 62 102 62 166 39 162 -58 -3 -65
-36 -128 -94 -183 -56 -52 -240 -175 -354 -235 -96 -51 -178 -118 -217 -179
-32 -52 -35 -66 -10 -56 68 26 137 25 307 -4 43 -8 70 -7 98 1 58 18 70 -2 65
-113 -4 -76 -7 -91 -32 -124 -28 -37 -51 -49 -226 -126 -122 -53 -217 -109
-257 -151 -35 -36 -87 -139 -75 -149 9 -9 197 17 237 32 17 7 69 29 118 51 75
34 93 39 129 33 47 -8 93 -48 104 -89 4 -18 -1 -39 -21 -72 -61 -103 -179
-179 -315 -203 -41 -7 -97 -20 -125 -29 -68 -23 -71 -47 -9 -97 57 -47 84 -90
84 -133 0 -61 -22 -85 -132 -143 -72 -38 -121 -72 -163 -114 -54 -53 -65 -71
-97 -160 -68 -187 -81 -252 -58 -296 15 -27 35 -24 58 9 50 69 303 220 441
263 36 11 117 24 180 29 165 13 226 37 311 120 81 79 138 104 170 75 19 -18
20 -34 20 -509 0 -760 -2 -767 -215 -969 -112 -106 -148 -149 -218 -255 -77
-115 -136 -184 -207 -241 l-25 -20 863 -1 c474 0 862 2 862 4 0 2 -24 18 -52
34 -29 17 -91 68 -138 114 -55 54 -115 101 -170 132 -107 62 -186 142 -233
238 -64 130 -69 174 -74 631 -3 225 -2 429 2 454 9 59 45 98 82 88 14 -3 46
-20 70 -36 84 -58 103 -62 285 -60 141 1 177 -1 225 -17 84 -28 164 -70 303
-161 161 -106 205 -127 226 -110 12 10 14 24 9 63 -9 69 -89 307 -119 354 -33
53 -113 122 -185 161 -68 36 -110 83 -117 133 -5 35 1 49 54 118 47 63 51 88
17 116 -15 12 -55 27 -89 34 -188 36 -247 60 -324 134 -24 22 -55 61 -69 84
-22 37 -25 49 -17 80 12 46 51 74 111 79 40 4 58 0 103 -24 77 -42 174 -72
250 -78 36 -3 77 -8 93 -10 17 -3 27 0 27 8 0 29 -51 115 -90 154 -44 43 -195
123 -339 179 -123 48 -161 99 -161 213 0 103 50 129 122 63 68 -62 99 -73 212
-79 100 -5 134 -14 191 -53 17 -11 33 -20 36 -20 14 0 -14 89 -53 170 -31 65
-57 101 -112 155 -39 39 -89 79 -111 90 -175 86 -383 229 -437 300 -98 129
-42 191 112 124 82 -36 149 -42 281 -25 46 6 77 5 103 -4 47 -15 55 -7 29 28
-36 49 -115 101 -259 172 -156 76 -205 118 -250 215 -31 66 -30 90 5 126 43
42 93 39 222 -12 57 -23 151 -57 209 -75 58 -19 126 -46 151 -59 26 -14 63
-25 83 -25 34 0 36 2 36 34 0 46 -46 218 -71 269 -37 72 -124 146 -279 237
-122 71 -160 100 -240 180 -139 139 -187 243 -140 303 26 33 30 33 95 2 83
-39 189 -62 362 -79 89 -9 174 -21 189 -26 15 -6 34 -8 41 -5 54 20 -129 221
-315 347 -79 53 -241 138 -264 138 -24 0 -123 51 -150 78 -34 32 -39 86 -9
102 42 22 136 36 186 28 74 -13 175 -12 188 1 28 28 -64 96 -220 162 -127 53
-180 97 -194 157 -7 32 -6 51 5 77 18 41 44 50 127 41 48 -6 59 -4 59 7 0 22
-114 124 -170 152 -87 44 -96 88 -29 132 80 52 79 49 34 88 -22 19 -65 54 -95
78 -63 50 -100 99 -100 134 0 17 18 41 57 77 l56 53 -46 7 c-106 16 -141 99
-72 166 43 41 44 50 6 50 -46 0 -85 53 -107 144 -10 42 -20 76 -23 76 -3 0
-14 -35 -25 -78z"/>
<path d="M5600 5172 c0 -4 9 -32 20 -62 24 -65 60 -228 60 -269 0 -17 -10 -42
-24 -58 -35 -41 -116 -39 -206 4 -36 17 -110 45 -165 63 -55 18 -143 50 -195
71 -102 42 -128 47 -136 25 -7 -20 29 -87 67 -126 18 -18 89 -60 159 -94 142
-70 197 -106 257 -165 76 -77 81 -140 12 -173 -33 -17 -39 -17 -90 -2 -46 14
-61 15 -104 3 -80 -20 -170 -16 -250 14 -38 14 -71 24 -73 22 -21 -21 217
-192 389 -281 112 -58 216 -156 266 -249 40 -77 83 -204 83 -247 -1 -80 -70
-96 -162 -37 -48 31 -60 34 -157 40 -110 6 -137 14 -208 62 l-43 28 0 -24 c0
-53 40 -90 145 -133 166 -67 276 -126 332 -177 60 -55 113 -151 120 -220 7
-60 -17 -77 -110 -77 -116 0 -235 31 -373 96 -41 19 -57 22 -78 14 -30 -11
-32 -20 -12 -59 39 -74 146 -133 283 -157 158 -27 223 -74 223 -162 0 -38 -38
-112 -73 -141 -41 -33 -15 -74 88 -134 137 -81 192 -154 253 -332 61 -177 75
-272 47 -325 -18 -35 -43 -50 -84 -50 -43 0 -68 13 -234 117 -270 171 -316
187 -507 177 -153 -8 -220 4 -291 52 -28 19 -55 34 -61 34 -6 0 -8 -159 -5
-447 3 -421 5 -452 25 -516 42 -136 124 -238 243 -301 66 -35 122 -80 208
-166 46 -45 89 -76 141 -102 130 -62 166 -70 377 -75 l191 -6 214 204 c117
112 350 334 516 493 l302 290 0 1345 0 1346 -438 438 -438 437 -252 0 c-138 0
-252 -3 -252 -8z"/>
<path d="M2017 2773 c-4 -3 -7 -266 -7 -584 l0 -577 218 -208 c119 -114 226
-217 238 -228 29 -29 415 -398 495 -474 l65 -62 210 0 c222 -1 238 2 324 45
76 38 146 113 236 251 62 96 104 146 214 254 76 74 145 149 153 165 40 81 48
182 54 693 5 401 4 492 -7 492 -7 0 -39 -25 -71 -55 -32 -31 -82 -67 -111 -80
-60 -27 -203 -55 -284 -55 -122 0 -359 -116 -503 -245 -61 -56 -77 -65 -109
-65 -68 1 -106 52 -105 144 0 68 43 213 98 332 39 85 112 161 209 218 36 21
66 40 66 42 0 7 -1377 4 -1383 -3z"/>
</g>
</svg>
